<svg xmlns="http://www.w3.org/2000/svg" viewBox="0 0 1507 1030"><defs><style>.cls-1{fill:orange;}.cls-1,.cls-2,.cls-3,.cls-7{stroke:#00223f;stroke-miterlimit:10;stroke-width:10px;}.cls-2,.cls-6{fill:#fff;}.cls-3,.cls-4{fill:#15b9ff;}.cls-5{fill:#00223f;}.cls-7{fill:none;}</style></defs><g id="Layer_2" data-name="Layer 2"><g id="Layer_1-2" data-name="Layer 1"><circle class="cls-1" cx="723" cy="515" r="510"/></g><g id="Layer_4" data-name="Layer 4"><g id="Tablet"><rect class="cls-2" x="696" y="437" width="397" height="266"/><rect class="cls-3" x="741" y="470" width="293" height="200"/></g><g id="LargerGear"><path class="cls-2" d="M604.1,601.58l11.18-43.34-37.34-15.69a112.41,112.41,0,0,0-6.42-25l26.94-35.24L566.05,451.4l-26.54,20.79a112.57,112.57,0,0,0-27.89-17.59L513.35,420l-44.2-7L459,445.22a112.71,112.71,0,0,0-31,6.33L403,424.4,367,451l16.14,30.18a113.42,113.42,0,0,0-17.86,25.54L330.7,507l-4.48,44.53L353,558.24a112.87,112.87,0,0,0,6.52,37.66L337,626.66l33,30.23,19.43-15.84a113.41,113.41,0,0,0,29.2,19.54l-2.94,34.26,43.92,8.64,11.5-32.61a112.52,112.52,0,0,0,43.4-10.77l22.35,24.24,36-26.59L556,626.33a112.59,112.59,0,0,0,16.11-29.4Z"/><circle class="cls-4" cx="466" cy="558" r="58"/><path class="cls-5" d="M466,505a53,53,0,1,1-53,53,53.07,53.07,0,0,1,53-53m0-10a63,63,0,1,0,63,63,63,63,0,0,0-63-63Z"/></g><g id="phone"><g id="Layer_6" data-name="Layer 6"><rect class="cls-2" x="499" y="237" width="247" height="465" rx="16.34"/></g><rect class="cls-4" x="504" y="332" width="237" height="278"/><path class="cls-5" d="M736,337V605H509V337H736m10-10H499V615H746V327Z"/><rect class="cls-5" x="539" y="460" width="175" height="57" rx="12.82"/><rect class="cls-6" x="549" y="471" width="155" height="35"/><rect class="cls-5" x="539" y="386" width="175" height="57" rx="12.82"/><rect class="cls-4" x="549" y="397" width="155" height="35"/><rect class="cls-5" x="604" y="649" width="48" height="10" rx="5"/><rect class="cls-5" x="586" y="281" width="84" height="13" rx="6.5"/></g><g id="spanner"><path class="cls-3" d="M842,602.58V408.75a51,51,0,0,0,11-92.62V367l-26,17.15L799,369V317.38a51,51,0,0,0,13,91.37V602a51,51,0,1,0,30,.62ZM826.51,675,807,663.75V641.27L826.49,630,846,641.25v22.48Z"/></g><g id="messageBox"><path class="cls-1" d="M562.11,280l-19.22-40.71a79.4,79.4,0,1,0-31.47,31.1c10,5.32,24.48,13,37.58,20.23C572,303.23,562.11,280,562.11,280Z"/><circle class="cls-2" cx="475.5" cy="202.5" r="12.5"/><circle class="cls-2" cx="430.5" cy="202.5" r="12.5"/><circle class="cls-2" cx="520.5" cy="202.5" r="12.5"/></g><g id="Calender"><rect class="cls-3" x="48" y="547" width="219" height="155" rx="12"/><rect class="cls-1" x="31" y="517" width="247" height="47" rx="12"/><rect class="cls-5" x="75.71" y="487" width="11.29" height="53" rx="3.5"/><rect class="cls-5" x="234.71" y="487" width="11.29" height="53" rx="3.5"/><g id="Bars"><rect class="cls-5" x="68" y="588" width="6" height="21" rx="3"/><rect class="cls-5" x="68" y="623" width="6" height="21" rx="3"/><rect class="cls-5" x="67" y="657" width="6" height="21" rx="3"/><rect class="cls-5" x="96" y="588" width="6" height="21" rx="3"/><rect class="cls-5" x="96" y="623" width="6" height="21" rx="3"/><rect class="cls-5" x="95" y="657" width="6" height="21" rx="3"/><rect class="cls-5" x="124" y="588" width="6" height="21" rx="3"/><rect class="cls-5" x="124" y="623" width="6" height="21" rx="3"/><rect class="cls-5" x="123" y="657" width="6" height="21" rx="3"/><rect class="cls-5" x="150" y="588" width="6" height="21" rx="3"/><rect class="cls-5" x="150" y="623" width="6" height="21" rx="3"/><rect class="cls-5" x="149" y="657" width="6" height="21" rx="3"/><rect class="cls-5" x="182" y="588" width="6" height="21" rx="3"/><rect class="cls-5" x="182" y="623" width="6" height="21" rx="3"/><rect class="cls-5" x="181" y="657" width="6" height="21" rx="3"/></g></g><g id="SmallGear"><path class="cls-2" d="M318.75,636.54l4.1-28.4-21.53-5.88a70.71,70.71,0,0,0-4.23-16.2L314,570l-17.15-23-19.6,11.15a71.55,71.55,0,0,0-15.75-10.28l-.6-24.36-28.56-2.71-4.5,20.28a70.8,70.8,0,0,0-22.65,4.78l-12.46-17.39-25.14,13.82L177,565.92a70.85,70.85,0,0,0-9.63,14.56L145,578.88l-5.43,28.17L160,613.7a71.09,71.09,0,0,0,3,19L147,648l17.15,23,16.23-9.23a71.11,71.11,0,0,0,18.85,13.72l-1,22.94,28.3,4.67,6-20.14a70.82,70.82,0,0,0,26.29-5.59l19.07,16.73,21.35-19.17-12.85-18.45A70.72,70.72,0,0,0,297.82,636ZM231,645a33,33,0,1,1,33-33A33,33,0,0,1,231,645Z"/></g><g id="Mail"><rect class="cls-1" x="250" y="609" width="153" height="93"/><polygon class="cls-1" points="403 609 250 609 250 617 326.5 668 403 616 403 609"/></g><g id="Layer_13" data-name="Layer 13"><polygon class="cls-3" points="1156 424 1087.5 360 1019 424 1050 424 1050 495 1126 495 1126 424 1156 424"/></g><g id="Compass"><circle class="cls-1" cx="1374" cy="582" r="32"/><line class="cls-7" x1="1429" y1="705" x2="1391.02" y2="609.09"/><line class="cls-7" x1="1321.94" y1="705" x2="1360.12" y2="610.84"/><path class="cls-7" d="M1411.49,660.79s-18.49,7.53-37.49,7.53a84.76,84.76,0,0,1-34.13-7.53"/><rect class="cls-5" x="1370" y="521" width="9" height="32" rx="3.5"/></g><g id="Ruler"><rect class="cls-1" x="1241.5" y="344.5" width="48" height="361"/><rect class="cls-5" x="1270" y="371" width="18" height="6" rx="2"/><rect class="cls-5" x="1258" y="389" width="32" height="6" rx="2"/><rect class="cls-5" x="1270" y="408" width="18" height="6" rx="2"/><rect class="cls-5" x="1258" y="426" width="32" height="6" rx="2"/><rect class="cls-5" x="1270" y="444" width="18" height="6" rx="2"/><rect class="cls-5" x="1258" y="462" width="32" height="6" rx="2"/><rect class="cls-5" x="1270" y="481" width="18" height="6" rx="2"/><rect class="cls-5" x="1258" y="499" width="32" height="6" rx="2"/><rect class="cls-5" x="1270" y="517" width="18" height="6" rx="2"/><rect class="cls-5" x="1258" y="535" width="32" height="6" rx="2"/><rect class="cls-5" x="1270" y="554" width="18" height="6" rx="2"/><rect class="cls-5" x="1258" y="572" width="32" height="6" rx="2"/><rect class="cls-5" x="1270" y="590" width="18" height="6" rx="2"/><rect class="cls-5" x="1258" y="608" width="32" height="6" rx="2"/><rect class="cls-5" x="1270" y="661" width="18" height="6" rx="2"/><rect class="cls-5" x="1258" y="679" width="32" height="6" rx="2"/><rect class="cls-5" x="1270" y="624" width="18" height="6" rx="2"/><rect class="cls-5" x="1258" y="642" width="32" height="6" rx="2"/></g><g id="CodeTab"><rect class="cls-3" x="1049" y="550" width="177" height="152"/><rect class="cls-1" x="1049" y="550" width="177" height="43"/><circle class="cls-5" cx="1115.5" cy="676.5" r="6.5"/><circle class="cls-5" cx="1135.5" cy="676.5" r="6.5"/><circle class="cls-5" cx="1155.5" cy="676.5" r="6.5"/><path class="cls-5" d="M1076.11,648.81l21,21a4.15,4.15,0,0,1,.43.51c.76,1.09,3,4.85-.23,8.07-3.81,3.81-7.66,0-7.66,0l-28.56-28.6a4,4,0,0,1,0-5.6l29-29.86a4,4,0,0,1,.87-.67c1.2-.7,4.12-2,6.45.35s1,5.67.35,7.06a4,4,0,0,1-.74,1l-20.82,21.09A4,4,0,0,0,1076.11,648.81Z"/><path class="cls-5" d="M1193.8,648.81l-21,21a4.15,4.15,0,0,0-.43.51c-.77,1.09-3,4.85.23,8.07,3.81,3.81,7.66,0,7.66,0l28.56-28.6a4,4,0,0,0,0-5.6l-28.95-29.86a3.75,3.75,0,0,0-.86-.67c-1.2-.7-4.13-2-6.45.35s-1,5.67-.35,7.06a3.93,3.93,0,0,0,.73,1l20.83,21.09A4,4,0,0,1,1193.8,648.81Z"/></g><g id="Nodes"><rect class="cls-3" x="253.5" y="292.5" width="5" height="66" transform="translate(-69.5 581.5) rotate(-90)"/><rect class="cls-3" x="203" y="342" width="5" height="66"/><circle class="cls-3" cx="204" cy="419" r="27"/><circle class="cls-3" cx="316" cy="331" r="27"/><circle class="cls-3" cx="204" cy="331" r="27"/><circle class="cls-3" cx="1222" cy="287" r="11"/><circle class="cls-1" cx="1034" cy="244" r="11"/><circle class="cls-2" cx="403" cy="321" r="11"/><circle class="cls-3" cx="1156" cy="347" r="11"/><rect class="cls-5" x="1096" y="273" width="48" height="10" rx="5"/><rect class="cls-5" x="1115" y="254" width="10" height="48" rx="5"/></g><g id="BottomLine"><rect class="cls-5" y="697" width="1507" height="17" rx="6.83"/></g></g></g></svg>